<svg xmlns="http://www.w3.org/2000/svg" xmlns:xlink="http://www.w3.org/1999/xlink" width="540" zoomAndPan="magnify" viewBox="0 0 404.88 404.99999" height="540" preserveAspectRatio="xMidYMid meet" version="1.0"><defs><clipPath id="b04f347b29"><path d="M 20.632812 52.097656 L 384.277344 52.097656 L 384.277344 352.757812 L 20.632812 352.757812 Z M 20.632812 52.097656 " clip-rule="nonzero"/></clipPath></defs><g clip-path="url(#b04f347b29)"><path fill="#ffffff" d="M 356.734375 321.535156 L 384.242188 348.09375 L 384.242188 348.976562 L 244.707031 348.976562 L 244.707031 348.09375 L 272.714844 321.535156 C 275.703125 319.074219 277.136719 315.171875 276.449219 311.335938 L 276.449219 141.546875 C 276.449219 134.371094 276.449219 124.675781 277.699219 116.378906 L 183.574219 352.371094 L 182.457031 352.371094 L 84.992188 135.253906 L 80.886719 125.8125 L 80.886719 268.175781 C 80.300781 272.9375 80.402344 277.683594 81.183594 282.414062 C 81.96875 287.148438 83.40625 291.671875 85.492188 295.992188 L 124.707031 348.101562 L 124.707031 348.980469 L 20.632812 348.980469 L 20.632812 348.101562 L 59.847656 295.867188 C 63.996094 287.277344 65.527344 277.664062 64.449219 268.175781 L 64.449219 110.835938 C 65.085938 103.085938 62.773438 95.382812 57.972656 89.3125 L 30.21875 52.9375 L 30.21875 52.054688 L 129.800781 52.054688 L 213.203125 235.949219 L 286.648438 52.054688 L 384.117188 52.054688 L 384.117188 52.9375 L 356.734375 83.773438 C 353.449219 86.199219 351.8125 90.296875 352.5 94.34375 L 352.5 311.335938 C 352.320312 312.300781 352.28125 313.269531 352.382812 314.242188 C 352.488281 315.21875 352.726562 316.160156 353.101562 317.0625 C 353.476562 317.96875 353.972656 318.800781 354.59375 319.5625 C 355.210938 320.324219 355.921875 320.980469 356.734375 321.535156 Z M 356.734375 321.535156 " fill-opacity="1" fill-rule="nonzero"/></g></svg>