<svg xmlns="http://www.w3.org/2000/svg" xmlns:xlink="http://www.w3.org/1999/xlink" width="540" zoomAndPan="magnify" viewBox="0 0 404.88 404.99999" height="540" preserveAspectRatio="xMidYMid meet" version="1.0"><defs><g/><clipPath id="87c3b09c35"><path d="M 28.511719 33.050781 L 377 33.050781 L 377 380.199219 L 28.511719 380.199219 Z M 28.511719 33.050781 " clip-rule="nonzero"/></clipPath><clipPath id="bc79ea7abe"><path d="M 47.253906 33.050781 L 357.625 33.050781 C 367.976562 33.050781 376.367188 41.441406 376.367188 51.792969 L 376.367188 361.453125 C 376.367188 371.804688 367.976562 380.199219 357.625 380.199219 L 47.253906 380.199219 C 36.902344 380.199219 28.511719 371.804688 28.511719 361.453125 L 28.511719 51.792969 C 28.511719 41.441406 36.902344 33.050781 47.253906 33.050781 Z M 47.253906 33.050781 " clip-rule="nonzero"/></clipPath></defs><g clip-path="url(#87c3b09c35)"><g clip-path="url(#bc79ea7abe)"><path fill="#7068f4" d="M 28.511719 33.050781 L 377.015625 33.050781 L 377.015625 380.199219 L 28.511719 380.199219 Z M 28.511719 33.050781 " fill-opacity="1" fill-rule="nonzero"/></g></g><g fill="#ffffff" fill-opacity="1"><g transform="translate(60.393404, 274.40928)"><g><path d="M 139.046875 0 L 94.640625 0 L 42.515625 -60.015625 L 42.515625 0 L 10.28125 0 L 10.28125 -141.453125 L 42.515625 -141.453125 L 42.515625 -83.671875 L 91.046875 -141.453125 L 130.140625 -141.453125 L 73.203125 -74.40625 Z M 139.046875 0 "/></g></g></g><g fill="#ffffff" fill-opacity="1"><g transform="translate(213.841261, 274.40928)"><g><path d="M 42.515625 -56.75 L 42.515625 0 L 10.28125 0 L 10.28125 -141.453125 L 42.515625 -141.453125 L 42.515625 -85.046875 L 88.125 -85.046875 L 88.125 -141.453125 L 120.359375 -141.453125 L 120.359375 0 L 88.125 0 L 88.125 -56.75 Z M 42.515625 -56.75 "/></g></g></g></svg>